HIERARCHY
ROOT Hips
{
	OFFSET	0.00	0.00	0.00
	CHANNELS 6 Xposition Yposition Zposition Zrotation Xrotation Yrotation
	JOINT LeftUpLeg
	{
		OFFSET	 0.126116	-0.014019	-0.065224
		CHANNELS 3 Zrotation Xrotation Yrotation
		JOINT LeftLeg
		{
			OFFSET	 0.000000	 0.000000	 0.569914
			CHANNELS 3 Zrotation Xrotation Yrotation
			JOINT LeftFoot
			{
				OFFSET	 0.000000	 0.000000	 0.544423
				CHANNELS 3 Zrotation Xrotation Yrotation
				JOINT LeftToeBase
				{
					OFFSET	 0.000000	 0.000000	 0.207117
					CHANNELS 3 Zrotation Xrotation Yrotation
					End Site
					{
						OFFSET	 0.000000	 0.000000	 0.207117
					}
				}
			}
		}
	}
	JOINT RightUpLeg
	{
		OFFSET	-0.124023	-0.008373	-0.065224
		CHANNELS 3 Zrotation Xrotation Yrotation
		JOINT RightLeg
		{
			OFFSET	 0.000000	 0.000000	 0.570047
			CHANNELS 3 Zrotation Xrotation Yrotation
			JOINT RightFoot
			{
				OFFSET	 0.000000	 0.000000	 0.544354
				CHANNELS 3 Zrotation Xrotation Yrotation
				JOINT RightToeBase
				{
					OFFSET	 0.000000	 0.000000	 0.207540
					CHANNELS 3 Zrotation Xrotation Yrotation
					End Site
					{
						OFFSET	 0.000000	 0.000000	 0.207540
					}
				}
			}
		}
	}
	JOINT Spine
	{
		OFFSET	 0.000184	-0.007763	 0.117403
		CHANNELS 3 Zrotation Xrotation Yrotation
		JOINT Spine1
		{
			OFFSET	 0.000000	 0.000000	 0.137269
			CHANNELS 3 Zrotation Xrotation Yrotation
			JOINT Spine2
			{
				OFFSET	 0.000000	 0.000000	 0.156879
				CHANNELS 3 Zrotation Xrotation Yrotation
				JOINT LeftShoulder
				{
					OFFSET	 0.080501	-0.002496	 0.160144
					CHANNELS 3 Zrotation Xrotation Yrotation
					JOINT LeftArm
					{
						OFFSET	 0.000000	 0.000000	 0.164363
						CHANNELS 3 Zrotation Xrotation Yrotation
						JOINT LeftForeArm
						{
							OFFSET	 0.000000	 0.000000	 0.364576
							CHANNELS 3 Zrotation Xrotation Yrotation
							JOINT LeftHand
							{
								OFFSET	 0.000000	 0.000000	 0.360812
								CHANNELS 3 Zrotation Xrotation Yrotation
								JOINT LeftHandIndex1
								{
									OFFSET	 0.000000	 0.000000	 0.086006
									CHANNELS 3 Zrotation Xrotation Yrotation
									JOINT LeftHandIndex2
									{
										OFFSET	 0.000000	 0.000000	 0.047236
										CHANNELS 3 Zrotation Xrotation Yrotation
										JOINT LeftHandIndex3
										{
											OFFSET	-0.004284	-0.000551	 0.038166
											CHANNELS 3 Zrotation Xrotation Yrotation
											End Site
											{
												OFFSET	-0.004284	-0.000551	 0.038166
											}
										}
									}
								}
							}
						}
					}
				}
				JOINT Neck
				{
					OFFSET	 0.000000	 0.000000	 0.176489
					CHANNELS 3 Zrotation Xrotation Yrotation
					JOINT Head
					{
						OFFSET	 0.000000	-0.001747	 0.077940
						CHANNELS 3 Zrotation Xrotation Yrotation
						End Site
						{
							OFFSET	 0.000000	-0.001747	 0.077940
						}
					}
				}
				JOINT RightShoulder
				{
					OFFSET	-0.080363	 0.000306	 0.159706
					CHANNELS 3 Zrotation Xrotation Yrotation
					JOINT RightArm
					{
						OFFSET	 0.000000	 0.000000	 0.164196
						CHANNELS 3 Zrotation Xrotation Yrotation
						JOINT RightForeArm
						{
							OFFSET	 0.000000	 0.000000	 0.365611
							CHANNELS 3 Zrotation Xrotation Yrotation
							JOINT RightHand
							{
								OFFSET	 0.000000	 0.000000	 0.360648
								CHANNELS 3 Zrotation Xrotation Yrotation
								JOINT RightHandIndex1
								{
									OFFSET	 0.000000	 0.000000	 0.069977
									CHANNELS 3 Zrotation Xrotation Yrotation
									JOINT RightHandIndex2
									{
										OFFSET	 0.000000	 0.000000	 0.052305
										CHANNELS 3 Zrotation Xrotation Yrotation
										JOINT RightHandIndex3
										{
											OFFSET	 0.009002	-0.000782	 0.042196
											CHANNELS 3 Zrotation Xrotation Yrotation
											End Site
											{
												OFFSET	 0.009002	-0.000782	 0.042196
											}
										}
									}
								}
							}
						}
					}
				}
			}
		}
	}
}
MOTION
Frames:    12
Frame Time: 0.03333334
-0.000455	 0.008877	 1.219290	 0.003862	 0.008744	-0.050948	-6.601379	-13.502460	 179.661200	 0.719651	-36.912870	-2.476729	-26.527640	 83.842150	 20.685650	-2.385833	 28.452760	 0.000004	 6.458936	-13.140070	-179.580000	-0.721854	-36.880500	 2.428313	 26.898380	 84.249630	-21.167420	 2.384658	 28.388730	 0.000004	 1.245002	 2.787369	 0.000259	 0.644488	 3.427324	 0.328130	-1.938111	-4.359169	-0.450967	-91.776250	 78.527470	-180.000000	 57.984620	 40.711550	-46.513290	-7.831802	 3.918613	-9.840370	-28.442040	 4.193622	-4.260436	-2.635965	 4.993658	 6.788941	-5.165319	 0.784187	 3.516649	-5.225038	 0.466231	 0.424329	-0.000002	-3.783157	-0.089647	-1.877953	 5.172093	 0.084812	 89.782100	 78.203870	 180.000000	 6.758653	 13.382210	 92.155030	-33.941820	-3.534822	 10.577800	 3.923826	 3.691325	-6.113742	 6.112037	 4.509576	-0.364401	 4.968462	 1.518543	-9.347576	 5.168945	 0.703820	 2.021906
-0.000460	 0.008095	 1.219406	 0.003868	 0.008741	-0.050845	-6.600570	-13.472530	 179.660800	 0.721916	-36.870900	-2.472953	-26.455820	 83.832550	 20.612700	-2.385833	 28.452760	 0.000004	 6.455784	-13.070180	-179.582900	-0.724930	-36.822310	 2.423177	 26.889600	 84.263220	-21.155890	 2.384658	 28.388730	 0.000004	 1.243041	 2.789035	 0.000336	 0.643444	 3.421543	 0.327670	-1.934982	-4.351862	-0.450072	-91.776140	 78.527470	 180.000000	 57.984700	 40.701300	-46.512980	-7.832155	 3.917536	-9.837593	-28.439680	 4.193959	-4.260056	-2.635965	 4.993658	 6.788941	-5.165319	 0.784187	 3.516649	-5.225038	 0.466231	 0.424329	-0.000002	-3.783157	-0.089647	-1.875071	 5.175675	 0.084741	 89.782140	 78.203890	 180.000000	 6.775800	 13.461330	 92.163000	-34.000170	-3.550101	 10.587020	 3.925719	 3.649412	-6.138023	 6.112037	 4.509576	-0.364401	 4.968462	 1.518543	-9.347576	 5.168945	 0.703820	 2.021906
-0.000465	 0.007408	 1.219510	 0.003868	 0.008731	-0.050777	-6.599845	-13.445980	 179.660500	 0.723938	-36.833430	-2.469583	-26.391370	 83.823840	 20.547230	-2.385833	 28.452760	 0.000004	 6.453030	-13.008510	-179.585300	-0.727673	-36.770440	 2.418605	 26.879540	 84.274740	-21.143400	 2.384658	 28.388730	 0.000004	 1.241290	 2.790492	 0.000420	 0.642509	 3.416517	 0.327284	-1.932197	-4.345500	-0.449293	-91.776200	 78.527450	-180.000000	 57.990310	 40.690350	-46.518920	-7.832304	 3.916053	-9.833858	-28.439050	 4.194048	-4.259958	-2.635965	 4.993658	 6.788941	-5.165319	 0.784187	 3.516649	-5.225038	 0.466231	 0.424329	-0.000002	-3.783157	-0.089647	-1.872456	 5.178777	 0.084673	 89.782160	 78.203900	 179.999900	 6.794041	 13.543540	 92.171810	-34.056320	-3.564776	 10.595690	 3.933507	 3.601167	-6.162500	 6.112037	 4.509576	-0.364401	 4.968462	 1.518543	-9.347576	 5.168945	 0.703820	 2.021906
-0.000470	 0.006747	 1.219610	 0.003860	 0.008715	-0.050674	-6.599154	-13.420420	 179.660100	 0.725880	-36.797390	-2.466342	-26.329620	 83.815440	 20.484510	-2.385833	 28.452760	 0.000004	 6.450367	-12.949060	-179.587700	-0.730307	-36.720350	 2.414200	 26.869340	 84.285780	-21.130890	 2.384658	 28.388730	 0.000004	 1.239572	 2.791892	 0.000482	 0.641598	 3.411697	 0.326904	-1.929448	-4.339389	-0.448526	-91.776280	 78.527490	-179.999900	 58.001800	 40.678310	-46.531780	-7.832712	 3.914068	-9.828778	-28.439600	 4.193987	-4.260060	-2.635965	 4.993658	 6.788941	-5.165319	 0.784187	 3.516649	-5.225038	 0.466231	 0.424329	-0.000002	-3.783157	-0.089647	-1.869916	 5.181810	 0.084608	 89.782060	 78.203890	-180.000000	 6.813659	 13.625600	 92.181350	-34.111840	-3.579357	 10.604440	 3.942793	 3.553025	-6.186587	 6.112037	 4.509576	-0.364401	 4.968462	 1.518543	-9.347576	 5.168945	 0.703820	 2.021906
-0.000476	 0.006084	 1.219710	 0.003875	 0.008716	-0.050565	-6.598486	-13.394960	 179.659700	 0.727802	-36.761550	-2.463129	-26.268580	 83.807110	 20.422500	-2.385833	 28.452760	 0.000004	 6.447690	-12.889590	-179.590100	-0.732936	-36.670340	 2.409799	 26.859560	 84.296900	-21.118780	 2.384658	 28.388730	 0.000004	 1.237811	 2.793290	 0.000547	 0.640659	 3.406843	 0.326521	-1.926661	-4.333261	-0.447758	-91.776260	 78.527490	-180.000000	 58.020120	 40.665300	-46.552830	-7.833029	 3.911636	-9.822621	-28.441530	 4.193707	-4.260371	-2.635965	 4.993658	 6.788941	-5.165319	 0.784187	 3.516649	-5.225038	 0.466231	 0.424329	-0.000002	-3.783157	-0.089647	-1.867298	 5.184795	 0.084538	 89.782070	 78.203870	-180.000000	 6.831495	 13.714810	 92.190410	-34.169480	-3.594728	 10.614040	 3.956213	 3.511597	-6.209683	 6.112037	 4.509576	-0.364401	 4.968462	 1.518543	-9.347576	 5.168945	 0.703820	 2.021906
-0.000481	 0.005404	 1.219808	 0.003877	 0.008711	-0.050460	-6.597787	-13.369380	 179.659400	 0.729720	-36.725900	-2.459929	-26.208740	 83.799040	 20.361690	-2.385833	 28.452760	 0.000004	 6.444978	-12.829080	-179.592600	-0.735580	-36.619910	 2.405372	 26.851590	 84.308560	-21.108450	 2.384658	 28.388730	 0.000004	 1.235983	 2.794719	 0.000617	 0.639689	 3.401888	 0.326111	-1.923757	-4.327003	-0.446949	-91.776180	 78.527430	 180.000000	 58.046230	 40.652080	-46.583320	-7.833515	 3.909229	-9.816476	-28.444790	 4.193295	-4.260889	-2.635965	 4.993658	 6.788941	-5.165319	 0.784187	 3.516649	-5.225038	 0.466231	 0.424329	-0.000002	-3.783157	-0.089647	-1.864577	 5.187888	 0.084466	 89.782150	 78.203890	 180.000000	 6.842195	 13.819250	 92.196390	-34.232100	-3.612018	 10.626300	 3.977414	 3.481642	-6.231508	 6.112037	 4.509576	-0.364401	 4.968462	 1.518543	-9.347576	 5.168945	 0.703820	 2.021906
-0.000485	 0.004772	 1.219895	 0.003868	 0.008697	-0.050358	-6.597136	-13.346240	 179.659100	 0.731422	-36.694080	-2.457080	-26.156470	 83.792210	 20.308540	-2.385833	 28.452760	 0.000004	 6.442467	-12.773490	-179.595000	-0.737966	-36.574260	 2.401369	 26.847040	 84.319940	-21.101730	 2.384658	 28.388730	 0.000004	 1.234262	 2.796043	 0.000686	 0.638778	 3.397323	 0.325708	-1.921023	-4.321214	-0.446184	-91.776180	 78.527490	 180.000000	 58.077900	 40.640680	-46.620930	-7.833938	 3.907222	-9.811386	-28.448950	 4.192724	-4.261568	-2.635965	 4.993658	 6.788941	-5.165319	 0.784187	 3.516649	-5.225038	 0.466231	 0.424329	-0.000002	-3.783157	-0.089647	-1.862010	 5.190735	 0.084395	 89.782170	 78.203900	 179.999900	 6.840539	 13.914130	 92.196130	-34.290390	-3.629219	 10.640580	 3.997753	 3.454523	-6.251615	 6.112037	 4.509576	-0.364401	 4.968462	 1.518543	-9.347576	 5.168945	 0.703820	 2.021906
-0.000487	 0.004003	 1.219995	 0.003875	 0.008694	-0.050241	-6.596378	-13.319040	 179.658900	 0.733391	-36.657310	-2.453788	-26.097600	 83.784610	 20.248620	-2.385833	 28.452760	 0.000004	 6.439422	-12.706850	-179.597900	-0.740764	-36.520540	 2.396664	 26.846010	 84.334520	-21.098120	 2.384658	 28.388730	 0.000004	 1.232125	 2.797649	 0.000775	 0.637644	 3.391749	 0.325249	-1.917621	-4.314179	-0.445269	-91.776190	 78.527450	-180.000000	 58.126740	 40.629500	-46.680000	-7.834318	 3.905587	-9.807144	-28.455840	 4.191784	-4.262661	-2.635965	 4.993658	 6.788941	-5.165319	 0.784187	 3.516649	-5.225038	 0.466231	 0.424329	-0.000002	-3.783157	-0.089647	-1.858845	 5.194207	 0.084308	 89.782170	 78.203900	 179.999900	 6.813426	 14.013450	 92.181460	-34.358780	-3.652256	 10.665360	 3.761395	 3.530724	-6.265268	 6.112037	 4.509576	-0.364401	 4.968462	 1.518543	-9.347576	 5.168945	 0.703820	 2.021906
-0.000484	 0.003372	 1.220066	 0.003870	 0.008682	-0.050176	-6.595758	-13.298470	 179.658800	 0.734800	-36.630780	-2.451414	-26.057970	 83.780100	 20.208190	-2.385833	 28.452760	 0.000004	 6.436963	-12.654050	-179.600300	-0.742871	-36.480130	 2.393129	 26.854510	 84.348020	-21.104560	 2.384658	 28.388730	 0.000004	 1.230351	 2.798960	 0.000865	 0.636706	 3.387243	 0.324865	-1.914825	-4.308469	-0.444508	-91.776160	 78.527470	 180.000000	 58.175410	 40.624180	-46.739470	-7.834082	 3.905866	-9.807922	-28.463000	 4.190814	-4.263824	-2.635965	 4.993658	 6.788941	-5.165319	 0.784187	 3.516649	-5.225038	 0.466231	 0.424329	-0.000002	-3.783157	-0.089647	-1.856208	 5.196997	 0.084234	 89.782170	 78.203890	 179.999900	 6.770700	 14.090250	 92.175480	-34.416810	-3.661218	 10.655940	 3.527277	 3.610998	-6.274244	 6.112037	 4.509576	-0.364401	 4.968462	 1.518543	-9.347576	 5.168945	 0.703820	 2.021906
-0.000474	 0.002644	 1.220105	 0.003875	 0.008681	-0.050045	-6.595127	-13.281370	 179.659200	 0.735702	-36.613910	-2.449908	-26.045100	 83.781040	 20.194630	-2.385833	 28.452760	 0.000004	 6.434206	-12.600010	-179.603600	-0.744586	-36.447140	 2.390248	 26.900040	 84.369320	-21.147930	 2.384658	 28.388730	 0.000004	 1.228292	 2.800449	 0.000944	 0.635616	 3.382065	 0.324357	-1.911553	-4.301940	-0.443589	-91.776240	 78.527450	-180.000000	 58.244050	 40.624380	-46.826450	-7.833900	 3.906642	-9.809956	-28.472760	 4.189533	-4.265425	-2.635965	 4.993658	 6.788941	-5.165319	 0.784187	 3.516649	-5.225038	 0.466231	 0.424329	-0.000002	-3.783157	-0.089647	-1.853162	 5.200230	 0.084148	 89.782120	 78.203850	 180.000000	 6.749416	 14.254480	 92.293740	-34.417260	-3.579079	 10.422370	 3.167009	 3.707170	-6.272840	 6.112037	 4.509576	-0.364401	 4.968462	 1.518543	-9.347576	 5.168945	 0.703820	 2.021906
-0.000458	 0.001896	 1.220112	 0.003870	 0.008670	-0.049919	-6.594522	-13.269040	 179.659900	 0.736044	-36.607510	-2.449335	-26.057910	 83.786910	 20.206900	-2.385833	 28.452760	 0.000004	 6.431457	-12.550050	-179.607300	-0.745769	-36.424300	 2.388252	 26.976110	 84.396010	-21.221980	 2.384658	 28.388730	 0.000004	 1.226163	 2.801963	 0.001033	 0.634493	 3.376841	 0.323900	-1.908188	-4.295326	-0.442681	-91.776250	 78.527470	-180.000000	 58.328670	 40.632410	-46.937120	-7.833753	 3.907873	-9.813017	-28.484420	 4.187970	-4.267308	-2.635965	 4.993658	 6.788941	-5.165319	 0.784187	 3.516649	-5.225038	 0.466231	 0.424329	-0.000002	-3.783157	-0.089647	-1.849974	 5.203473	 0.084056	 89.782100	 78.203900	 180.000000	 6.717432	 14.517250	 92.486480	-34.318610	-3.428301	 10.048330	 2.675420	 3.810902	-6.256074	 6.112037	 4.509576	-0.364401	 4.968462	 1.518543	-9.347576	 5.168945	 0.703820	 2.021906
-0.000441	 0.001242	 1.220112	 0.003878	 0.008664	-0.049817	-6.594000	-13.259240	 179.660600	 0.736239	-36.603900	-2.449011	-26.073710	 83.792940	 20.222260	-2.385833	 28.452760	 0.000004	 6.429058	-12.507280	-179.610600	-0.746708	-36.406090	 2.386667	 27.047880	 84.420020	-21.292020	 2.384658	 28.388730	 0.000004	 1.224268	 2.803282	 0.001115	 0.633493	 3.372262	 0.323466	-1.905192	-4.289552	-0.441867	-91.776120	 78.527470	 179.999900	 58.414590	 40.646140	-47.052650	-7.833577	 3.908622	-9.814885	-28.496200	 4.186375	-4.269220	-2.635965	 4.993658	 6.788941	-5.165319	 0.784187	 3.516649	-5.225038	 0.466231	 0.424329	-0.000002	-3.783157	-0.089647	-1.847169	 5.206350	 0.083975	 89.782110	 78.203900	 180.000000	 6.635685	 14.740520	 92.596710	-34.227640	-3.323859	 9.798959	 2.247131	 3.902233	-6.240896	 6.112037	 4.509576	-0.364401	 4.968462	 1.518543	-9.347576	 5.168945	 0.703820	 2.021906
